<mxfile host="Electron" modified="2024-03-09T16:18:15.629Z" agent="Mozilla/5.0 (Windows NT 10.0; Win64; x64) AppleWebKit/537.36 (KHTML, like Gecko) draw.io/23.1.5 Chrome/120.0.6099.109 Electron/28.1.0 Safari/537.36" etag="9-wJKrmJ4jCwwi-JtoRa" version="23.1.5" type="device">
  <diagram name="Página-1" id="SW3cvtyyfjzHGEwKBoa3">
    <mxGraphModel dx="1195" dy="737" grid="1" gridSize="10" guides="1" tooltips="1" connect="1" arrows="1" fold="1" page="1" pageScale="1" pageWidth="850" pageHeight="1100" math="0" shadow="0">
      <root>
        <mxCell id="0" />
        <mxCell id="1" parent="0" />
        <mxCell id="WRHxQeInZ_svKYXOi5BU-81" value="" style="group" vertex="1" connectable="0" parent="1">
          <mxGeometry x="160" y="770" width="200" height="270" as="geometry" />
        </mxCell>
        <mxCell id="WRHxQeInZ_svKYXOi5BU-11" value="Users" style="shape=table;startSize=30;container=1;collapsible=1;childLayout=tableLayout;fixedRows=1;rowLines=0;fontStyle=1;align=center;resizeLast=1;html=1;strokeWidth=2;strokeColor=#0000FF;" vertex="1" parent="WRHxQeInZ_svKYXOi5BU-81">
          <mxGeometry width="200" height="270" as="geometry" />
        </mxCell>
        <mxCell id="WRHxQeInZ_svKYXOi5BU-12" value="" style="shape=tableRow;horizontal=0;startSize=0;swimlaneHead=0;swimlaneBody=0;fillColor=none;collapsible=0;dropTarget=0;points=[[0,0.5],[1,0.5]];portConstraint=eastwest;top=0;left=0;right=0;bottom=1;strokeWidth=2;strokeColor=#0000FF;" vertex="1" parent="WRHxQeInZ_svKYXOi5BU-11">
          <mxGeometry y="30" width="200" height="30" as="geometry" />
        </mxCell>
        <mxCell id="WRHxQeInZ_svKYXOi5BU-13" value="PK" style="shape=partialRectangle;connectable=0;fillColor=none;top=0;left=0;bottom=0;right=0;fontStyle=1;overflow=hidden;whiteSpace=wrap;html=1;" vertex="1" parent="WRHxQeInZ_svKYXOi5BU-12">
          <mxGeometry width="30" height="30" as="geometry">
            <mxRectangle width="30" height="30" as="alternateBounds" />
          </mxGeometry>
        </mxCell>
        <mxCell id="WRHxQeInZ_svKYXOi5BU-14" value="_id" style="shape=partialRectangle;connectable=0;fillColor=none;top=0;left=0;bottom=0;right=0;align=left;spacingLeft=6;fontStyle=5;overflow=hidden;whiteSpace=wrap;html=1;" vertex="1" parent="WRHxQeInZ_svKYXOi5BU-12">
          <mxGeometry x="30" width="170" height="30" as="geometry">
            <mxRectangle width="170" height="30" as="alternateBounds" />
          </mxGeometry>
        </mxCell>
        <mxCell id="WRHxQeInZ_svKYXOi5BU-15" value="" style="shape=tableRow;horizontal=0;startSize=0;swimlaneHead=0;swimlaneBody=0;fillColor=none;collapsible=0;dropTarget=0;points=[[0,0.5],[1,0.5]];portConstraint=eastwest;top=0;left=0;right=0;bottom=0;" vertex="1" parent="WRHxQeInZ_svKYXOi5BU-11">
          <mxGeometry y="60" width="200" height="30" as="geometry" />
        </mxCell>
        <mxCell id="WRHxQeInZ_svKYXOi5BU-16" value="" style="shape=partialRectangle;connectable=0;fillColor=none;top=0;left=0;bottom=0;right=0;editable=1;overflow=hidden;whiteSpace=wrap;html=1;" vertex="1" parent="WRHxQeInZ_svKYXOi5BU-15">
          <mxGeometry width="30" height="30" as="geometry">
            <mxRectangle width="30" height="30" as="alternateBounds" />
          </mxGeometry>
        </mxCell>
        <mxCell id="WRHxQeInZ_svKYXOi5BU-17" value="name" style="shape=partialRectangle;connectable=0;fillColor=none;top=0;left=0;bottom=0;right=0;align=left;spacingLeft=6;overflow=hidden;whiteSpace=wrap;html=1;" vertex="1" parent="WRHxQeInZ_svKYXOi5BU-15">
          <mxGeometry x="30" width="170" height="30" as="geometry">
            <mxRectangle width="170" height="30" as="alternateBounds" />
          </mxGeometry>
        </mxCell>
        <mxCell id="WRHxQeInZ_svKYXOi5BU-18" value="" style="shape=tableRow;horizontal=0;startSize=0;swimlaneHead=0;swimlaneBody=0;fillColor=none;collapsible=0;dropTarget=0;points=[[0,0.5],[1,0.5]];portConstraint=eastwest;top=0;left=0;right=0;bottom=0;" vertex="1" parent="WRHxQeInZ_svKYXOi5BU-11">
          <mxGeometry y="90" width="200" height="30" as="geometry" />
        </mxCell>
        <mxCell id="WRHxQeInZ_svKYXOi5BU-19" value="" style="shape=partialRectangle;connectable=0;fillColor=none;top=0;left=0;bottom=0;right=0;editable=1;overflow=hidden;whiteSpace=wrap;html=1;" vertex="1" parent="WRHxQeInZ_svKYXOi5BU-18">
          <mxGeometry width="30" height="30" as="geometry">
            <mxRectangle width="30" height="30" as="alternateBounds" />
          </mxGeometry>
        </mxCell>
        <mxCell id="WRHxQeInZ_svKYXOi5BU-20" value="lastname" style="shape=partialRectangle;connectable=0;fillColor=none;top=0;left=0;bottom=0;right=0;align=left;spacingLeft=6;overflow=hidden;whiteSpace=wrap;html=1;" vertex="1" parent="WRHxQeInZ_svKYXOi5BU-18">
          <mxGeometry x="30" width="170" height="30" as="geometry">
            <mxRectangle width="170" height="30" as="alternateBounds" />
          </mxGeometry>
        </mxCell>
        <mxCell id="WRHxQeInZ_svKYXOi5BU-21" value="" style="shape=tableRow;horizontal=0;startSize=0;swimlaneHead=0;swimlaneBody=0;fillColor=none;collapsible=0;dropTarget=0;points=[[0,0.5],[1,0.5]];portConstraint=eastwest;top=0;left=0;right=0;bottom=0;" vertex="1" parent="WRHxQeInZ_svKYXOi5BU-11">
          <mxGeometry y="120" width="200" height="30" as="geometry" />
        </mxCell>
        <mxCell id="WRHxQeInZ_svKYXOi5BU-22" value="" style="shape=partialRectangle;connectable=0;fillColor=none;top=0;left=0;bottom=0;right=0;editable=1;overflow=hidden;whiteSpace=wrap;html=1;" vertex="1" parent="WRHxQeInZ_svKYXOi5BU-21">
          <mxGeometry width="30" height="30" as="geometry">
            <mxRectangle width="30" height="30" as="alternateBounds" />
          </mxGeometry>
        </mxCell>
        <mxCell id="WRHxQeInZ_svKYXOi5BU-23" value="email" style="shape=partialRectangle;connectable=0;fillColor=none;top=0;left=0;bottom=0;right=0;align=left;spacingLeft=6;overflow=hidden;whiteSpace=wrap;html=1;" vertex="1" parent="WRHxQeInZ_svKYXOi5BU-21">
          <mxGeometry x="30" width="170" height="30" as="geometry">
            <mxRectangle width="170" height="30" as="alternateBounds" />
          </mxGeometry>
        </mxCell>
        <mxCell id="WRHxQeInZ_svKYXOi5BU-28" value="" style="shape=tableRow;horizontal=0;startSize=0;swimlaneHead=0;swimlaneBody=0;fillColor=none;collapsible=0;dropTarget=0;points=[[0,0.5],[1,0.5]];portConstraint=eastwest;top=0;left=0;right=0;bottom=0;" vertex="1" parent="WRHxQeInZ_svKYXOi5BU-11">
          <mxGeometry y="150" width="200" height="30" as="geometry" />
        </mxCell>
        <mxCell id="WRHxQeInZ_svKYXOi5BU-29" value="" style="shape=partialRectangle;connectable=0;fillColor=none;top=0;left=0;bottom=0;right=0;editable=1;overflow=hidden;" vertex="1" parent="WRHxQeInZ_svKYXOi5BU-28">
          <mxGeometry width="30" height="30" as="geometry">
            <mxRectangle width="30" height="30" as="alternateBounds" />
          </mxGeometry>
        </mxCell>
        <mxCell id="WRHxQeInZ_svKYXOi5BU-30" value="verified" style="shape=partialRectangle;connectable=0;fillColor=none;top=0;left=0;bottom=0;right=0;align=left;spacingLeft=6;overflow=hidden;" vertex="1" parent="WRHxQeInZ_svKYXOi5BU-28">
          <mxGeometry x="30" width="170" height="30" as="geometry">
            <mxRectangle width="170" height="30" as="alternateBounds" />
          </mxGeometry>
        </mxCell>
        <mxCell id="WRHxQeInZ_svKYXOi5BU-31" value="" style="shape=tableRow;horizontal=0;startSize=0;swimlaneHead=0;swimlaneBody=0;fillColor=none;collapsible=0;dropTarget=0;points=[[0,0.5],[1,0.5]];portConstraint=eastwest;top=0;left=0;right=0;bottom=0;" vertex="1" parent="WRHxQeInZ_svKYXOi5BU-11">
          <mxGeometry y="180" width="200" height="30" as="geometry" />
        </mxCell>
        <mxCell id="WRHxQeInZ_svKYXOi5BU-32" value="" style="shape=partialRectangle;connectable=0;fillColor=none;top=0;left=0;bottom=0;right=0;editable=1;overflow=hidden;" vertex="1" parent="WRHxQeInZ_svKYXOi5BU-31">
          <mxGeometry width="30" height="30" as="geometry">
            <mxRectangle width="30" height="30" as="alternateBounds" />
          </mxGeometry>
        </mxCell>
        <mxCell id="WRHxQeInZ_svKYXOi5BU-33" value="password" style="shape=partialRectangle;connectable=0;fillColor=none;top=0;left=0;bottom=0;right=0;align=left;spacingLeft=6;overflow=hidden;" vertex="1" parent="WRHxQeInZ_svKYXOi5BU-31">
          <mxGeometry x="30" width="170" height="30" as="geometry">
            <mxRectangle width="170" height="30" as="alternateBounds" />
          </mxGeometry>
        </mxCell>
        <mxCell id="WRHxQeInZ_svKYXOi5BU-34" value="" style="shape=tableRow;horizontal=0;startSize=0;swimlaneHead=0;swimlaneBody=0;fillColor=none;collapsible=0;dropTarget=0;points=[[0,0.5],[1,0.5]];portConstraint=eastwest;top=0;left=0;right=0;bottom=0;" vertex="1" parent="WRHxQeInZ_svKYXOi5BU-11">
          <mxGeometry y="210" width="200" height="30" as="geometry" />
        </mxCell>
        <mxCell id="WRHxQeInZ_svKYXOi5BU-35" value="" style="shape=partialRectangle;connectable=0;fillColor=none;top=0;left=0;bottom=0;right=0;editable=1;overflow=hidden;" vertex="1" parent="WRHxQeInZ_svKYXOi5BU-34">
          <mxGeometry width="30" height="30" as="geometry">
            <mxRectangle width="30" height="30" as="alternateBounds" />
          </mxGeometry>
        </mxCell>
        <mxCell id="WRHxQeInZ_svKYXOi5BU-36" value="createdAt " style="shape=partialRectangle;connectable=0;fillColor=none;top=0;left=0;bottom=0;right=0;align=left;spacingLeft=6;overflow=hidden;verticalAlign=middle;horizontal=1;labelBackgroundColor=none;labelBorderColor=none;" vertex="1" parent="WRHxQeInZ_svKYXOi5BU-34">
          <mxGeometry x="30" width="170" height="30" as="geometry">
            <mxRectangle width="170" height="30" as="alternateBounds" />
          </mxGeometry>
        </mxCell>
        <mxCell id="WRHxQeInZ_svKYXOi5BU-37" value="" style="shape=tableRow;horizontal=0;startSize=0;swimlaneHead=0;swimlaneBody=0;fillColor=none;collapsible=0;dropTarget=0;points=[[0,0.5],[1,0.5]];portConstraint=eastwest;top=0;left=0;right=0;bottom=0;" vertex="1" parent="WRHxQeInZ_svKYXOi5BU-11">
          <mxGeometry y="240" width="200" height="30" as="geometry" />
        </mxCell>
        <mxCell id="WRHxQeInZ_svKYXOi5BU-38" value="" style="shape=partialRectangle;connectable=0;fillColor=none;top=0;left=0;bottom=0;right=0;editable=1;overflow=hidden;" vertex="1" parent="WRHxQeInZ_svKYXOi5BU-37">
          <mxGeometry width="30" height="30" as="geometry">
            <mxRectangle width="30" height="30" as="alternateBounds" />
          </mxGeometry>
        </mxCell>
        <mxCell id="WRHxQeInZ_svKYXOi5BU-39" value="updatedAt" style="shape=partialRectangle;connectable=0;fillColor=none;top=0;left=0;bottom=0;right=0;align=left;spacingLeft=6;overflow=hidden;" vertex="1" parent="WRHxQeInZ_svKYXOi5BU-37">
          <mxGeometry x="30" width="170" height="30" as="geometry">
            <mxRectangle width="170" height="30" as="alternateBounds" />
          </mxGeometry>
        </mxCell>
        <mxCell id="WRHxQeInZ_svKYXOi5BU-41" value="String" style="text;html=1;align=right;verticalAlign=middle;whiteSpace=wrap;rounded=0;spacingRight=7;fontColor=#808080;" vertex="1" parent="WRHxQeInZ_svKYXOi5BU-81">
          <mxGeometry x="33.333333333333336" y="60" width="166.66666666666669" height="30" as="geometry" />
        </mxCell>
        <mxCell id="WRHxQeInZ_svKYXOi5BU-42" value="String" style="text;html=1;align=right;verticalAlign=middle;whiteSpace=wrap;rounded=0;spacingRight=7;fontColor=#808080;" vertex="1" parent="WRHxQeInZ_svKYXOi5BU-81">
          <mxGeometry x="33.333333333333336" y="90" width="166.66666666666669" height="30" as="geometry" />
        </mxCell>
        <mxCell id="WRHxQeInZ_svKYXOi5BU-43" value="String" style="text;html=1;align=right;verticalAlign=middle;whiteSpace=wrap;rounded=0;spacingRight=7;fontColor=#808080;" vertex="1" parent="WRHxQeInZ_svKYXOi5BU-81">
          <mxGeometry x="33.333333333333336" y="120" width="166.66666666666669" height="30" as="geometry" />
        </mxCell>
        <mxCell id="WRHxQeInZ_svKYXOi5BU-44" value="Boolean" style="text;html=1;align=right;verticalAlign=middle;whiteSpace=wrap;rounded=0;spacingRight=7;fontColor=#808080;" vertex="1" parent="WRHxQeInZ_svKYXOi5BU-81">
          <mxGeometry x="33.333333333333336" y="150" width="166.66666666666669" height="30" as="geometry" />
        </mxCell>
        <mxCell id="WRHxQeInZ_svKYXOi5BU-45" value="String" style="text;html=1;align=right;verticalAlign=middle;whiteSpace=wrap;rounded=0;spacingRight=7;fontColor=#808080;" vertex="1" parent="WRHxQeInZ_svKYXOi5BU-81">
          <mxGeometry x="33.333333333333336" y="180" width="166.66666666666669" height="30" as="geometry" />
        </mxCell>
        <mxCell id="WRHxQeInZ_svKYXOi5BU-46" value="Date" style="text;html=1;align=right;verticalAlign=middle;whiteSpace=wrap;rounded=0;spacingRight=7;fontColor=#808080;" vertex="1" parent="WRHxQeInZ_svKYXOi5BU-81">
          <mxGeometry x="33.333333333333336" y="210" width="166.66666666666669" height="30" as="geometry" />
        </mxCell>
        <mxCell id="WRHxQeInZ_svKYXOi5BU-47" value="Date" style="text;html=1;align=right;verticalAlign=middle;whiteSpace=wrap;rounded=0;spacingRight=7;fontColor=#808080;" vertex="1" parent="WRHxQeInZ_svKYXOi5BU-81">
          <mxGeometry x="33.333333333333336" y="240" width="166.66666666666669" height="30" as="geometry" />
        </mxCell>
        <mxCell id="WRHxQeInZ_svKYXOi5BU-40" value="ObjectId" style="text;html=1;align=right;verticalAlign=middle;whiteSpace=wrap;rounded=0;spacingRight=7;fontColor=#808080;" vertex="1" parent="WRHxQeInZ_svKYXOi5BU-81">
          <mxGeometry x="33.333333333333314" y="30" width="166.66666666666669" height="30" as="geometry" />
        </mxCell>
        <mxCell id="WRHxQeInZ_svKYXOi5BU-90" value="" style="group;strokeWidth=2;" vertex="1" connectable="0" parent="1">
          <mxGeometry x="520" y="360" width="200.00000000000006" height="300" as="geometry" />
        </mxCell>
        <mxCell id="WRHxQeInZ_svKYXOi5BU-82" value="" style="group" vertex="1" connectable="0" parent="WRHxQeInZ_svKYXOi5BU-90">
          <mxGeometry width="200.00000000000006" height="270" as="geometry" />
        </mxCell>
        <mxCell id="WRHxQeInZ_svKYXOi5BU-48" value="Tasks" style="shape=table;startSize=30;container=1;collapsible=1;childLayout=tableLayout;fixedRows=1;rowLines=0;fontStyle=1;align=center;resizeLast=1;html=1;strokeWidth=2;strokeColor=#990000;" vertex="1" parent="WRHxQeInZ_svKYXOi5BU-82">
          <mxGeometry width="200" height="300" as="geometry" />
        </mxCell>
        <mxCell id="WRHxQeInZ_svKYXOi5BU-49" value="" style="shape=tableRow;horizontal=0;startSize=0;swimlaneHead=0;swimlaneBody=0;fillColor=none;collapsible=0;dropTarget=0;points=[[0,0.5],[1,0.5]];portConstraint=eastwest;top=0;left=0;right=0;bottom=1;strokeWidth=2;strokeColor=#990000;" vertex="1" parent="WRHxQeInZ_svKYXOi5BU-48">
          <mxGeometry y="30" width="200" height="30" as="geometry" />
        </mxCell>
        <mxCell id="WRHxQeInZ_svKYXOi5BU-50" value="PK" style="shape=partialRectangle;connectable=0;fillColor=none;top=0;left=0;bottom=0;right=0;fontStyle=1;overflow=hidden;whiteSpace=wrap;html=1;" vertex="1" parent="WRHxQeInZ_svKYXOi5BU-49">
          <mxGeometry width="30" height="30" as="geometry">
            <mxRectangle width="30" height="30" as="alternateBounds" />
          </mxGeometry>
        </mxCell>
        <mxCell id="WRHxQeInZ_svKYXOi5BU-51" value="_id" style="shape=partialRectangle;connectable=0;fillColor=none;top=0;left=0;bottom=0;right=0;align=left;spacingLeft=6;fontStyle=5;overflow=hidden;whiteSpace=wrap;html=1;" vertex="1" parent="WRHxQeInZ_svKYXOi5BU-49">
          <mxGeometry x="30" width="170" height="30" as="geometry">
            <mxRectangle width="170" height="30" as="alternateBounds" />
          </mxGeometry>
        </mxCell>
        <mxCell id="WRHxQeInZ_svKYXOi5BU-84" value="" style="shape=tableRow;horizontal=0;startSize=0;swimlaneHead=0;swimlaneBody=0;fillColor=none;collapsible=0;dropTarget=0;points=[[0,0.5],[1,0.5]];portConstraint=eastwest;top=0;left=0;right=0;bottom=0;" vertex="1" parent="WRHxQeInZ_svKYXOi5BU-48">
          <mxGeometry y="60" width="200" height="30" as="geometry" />
        </mxCell>
        <mxCell id="WRHxQeInZ_svKYXOi5BU-85" value="FK" style="shape=partialRectangle;connectable=0;fillColor=none;top=0;left=0;bottom=0;right=0;fontStyle=0;overflow=hidden;whiteSpace=wrap;html=1;" vertex="1" parent="WRHxQeInZ_svKYXOi5BU-84">
          <mxGeometry width="30" height="30" as="geometry">
            <mxRectangle width="30" height="30" as="alternateBounds" />
          </mxGeometry>
        </mxCell>
        <mxCell id="WRHxQeInZ_svKYXOi5BU-86" value="userId" style="shape=partialRectangle;connectable=0;fillColor=none;top=0;left=0;bottom=0;right=0;align=left;spacingLeft=6;fontStyle=0;overflow=hidden;whiteSpace=wrap;html=1;" vertex="1" parent="WRHxQeInZ_svKYXOi5BU-84">
          <mxGeometry x="30" width="170" height="30" as="geometry">
            <mxRectangle width="170" height="30" as="alternateBounds" />
          </mxGeometry>
        </mxCell>
        <mxCell id="WRHxQeInZ_svKYXOi5BU-52" value="" style="shape=tableRow;horizontal=0;startSize=0;swimlaneHead=0;swimlaneBody=0;fillColor=none;collapsible=0;dropTarget=0;points=[[0,0.5],[1,0.5]];portConstraint=eastwest;top=0;left=0;right=0;bottom=0;" vertex="1" parent="WRHxQeInZ_svKYXOi5BU-48">
          <mxGeometry y="90" width="200" height="30" as="geometry" />
        </mxCell>
        <mxCell id="WRHxQeInZ_svKYXOi5BU-53" value="" style="shape=partialRectangle;connectable=0;fillColor=none;top=0;left=0;bottom=0;right=0;editable=1;overflow=hidden;whiteSpace=wrap;html=1;" vertex="1" parent="WRHxQeInZ_svKYXOi5BU-52">
          <mxGeometry width="30" height="30" as="geometry">
            <mxRectangle width="30" height="30" as="alternateBounds" />
          </mxGeometry>
        </mxCell>
        <mxCell id="WRHxQeInZ_svKYXOi5BU-54" value="title" style="shape=partialRectangle;connectable=0;fillColor=none;top=0;left=0;bottom=0;right=0;align=left;spacingLeft=6;overflow=hidden;whiteSpace=wrap;html=1;" vertex="1" parent="WRHxQeInZ_svKYXOi5BU-52">
          <mxGeometry x="30" width="170" height="30" as="geometry">
            <mxRectangle width="170" height="30" as="alternateBounds" />
          </mxGeometry>
        </mxCell>
        <mxCell id="WRHxQeInZ_svKYXOi5BU-55" value="" style="shape=tableRow;horizontal=0;startSize=0;swimlaneHead=0;swimlaneBody=0;fillColor=none;collapsible=0;dropTarget=0;points=[[0,0.5],[1,0.5]];portConstraint=eastwest;top=0;left=0;right=0;bottom=0;" vertex="1" parent="WRHxQeInZ_svKYXOi5BU-48">
          <mxGeometry y="120" width="200" height="30" as="geometry" />
        </mxCell>
        <mxCell id="WRHxQeInZ_svKYXOi5BU-56" value="" style="shape=partialRectangle;connectable=0;fillColor=none;top=0;left=0;bottom=0;right=0;editable=1;overflow=hidden;whiteSpace=wrap;html=1;" vertex="1" parent="WRHxQeInZ_svKYXOi5BU-55">
          <mxGeometry width="30" height="30" as="geometry">
            <mxRectangle width="30" height="30" as="alternateBounds" />
          </mxGeometry>
        </mxCell>
        <mxCell id="WRHxQeInZ_svKYXOi5BU-57" value="description" style="shape=partialRectangle;connectable=0;fillColor=none;top=0;left=0;bottom=0;right=0;align=left;spacingLeft=6;overflow=hidden;whiteSpace=wrap;html=1;" vertex="1" parent="WRHxQeInZ_svKYXOi5BU-55">
          <mxGeometry x="30" width="170" height="30" as="geometry">
            <mxRectangle width="170" height="30" as="alternateBounds" />
          </mxGeometry>
        </mxCell>
        <mxCell id="WRHxQeInZ_svKYXOi5BU-58" value="" style="shape=tableRow;horizontal=0;startSize=0;swimlaneHead=0;swimlaneBody=0;fillColor=none;collapsible=0;dropTarget=0;points=[[0,0.5],[1,0.5]];portConstraint=eastwest;top=0;left=0;right=0;bottom=0;" vertex="1" parent="WRHxQeInZ_svKYXOi5BU-48">
          <mxGeometry y="150" width="200" height="30" as="geometry" />
        </mxCell>
        <mxCell id="WRHxQeInZ_svKYXOi5BU-59" value="" style="shape=partialRectangle;connectable=0;fillColor=none;top=0;left=0;bottom=0;right=0;editable=1;overflow=hidden;whiteSpace=wrap;html=1;" vertex="1" parent="WRHxQeInZ_svKYXOi5BU-58">
          <mxGeometry width="30" height="30" as="geometry">
            <mxRectangle width="30" height="30" as="alternateBounds" />
          </mxGeometry>
        </mxCell>
        <mxCell id="WRHxQeInZ_svKYXOi5BU-60" value="image" style="shape=partialRectangle;connectable=0;fillColor=none;top=0;left=0;bottom=0;right=0;align=left;spacingLeft=6;overflow=hidden;whiteSpace=wrap;html=1;" vertex="1" parent="WRHxQeInZ_svKYXOi5BU-58">
          <mxGeometry x="30" width="170" height="30" as="geometry">
            <mxRectangle width="170" height="30" as="alternateBounds" />
          </mxGeometry>
        </mxCell>
        <mxCell id="WRHxQeInZ_svKYXOi5BU-61" value="" style="shape=tableRow;horizontal=0;startSize=0;swimlaneHead=0;swimlaneBody=0;fillColor=none;collapsible=0;dropTarget=0;points=[[0,0.5],[1,0.5]];portConstraint=eastwest;top=0;left=0;right=0;bottom=0;" vertex="1" parent="WRHxQeInZ_svKYXOi5BU-48">
          <mxGeometry y="180" width="200" height="30" as="geometry" />
        </mxCell>
        <mxCell id="WRHxQeInZ_svKYXOi5BU-62" value="" style="shape=partialRectangle;connectable=0;fillColor=none;top=0;left=0;bottom=0;right=0;editable=1;overflow=hidden;" vertex="1" parent="WRHxQeInZ_svKYXOi5BU-61">
          <mxGeometry width="30" height="30" as="geometry">
            <mxRectangle width="30" height="30" as="alternateBounds" />
          </mxGeometry>
        </mxCell>
        <mxCell id="WRHxQeInZ_svKYXOi5BU-63" value="deadline" style="shape=partialRectangle;connectable=0;fillColor=none;top=0;left=0;bottom=0;right=0;align=left;spacingLeft=6;overflow=hidden;" vertex="1" parent="WRHxQeInZ_svKYXOi5BU-61">
          <mxGeometry x="30" width="170" height="30" as="geometry">
            <mxRectangle width="170" height="30" as="alternateBounds" />
          </mxGeometry>
        </mxCell>
        <mxCell id="WRHxQeInZ_svKYXOi5BU-64" value="" style="shape=tableRow;horizontal=0;startSize=0;swimlaneHead=0;swimlaneBody=0;fillColor=none;collapsible=0;dropTarget=0;points=[[0,0.5],[1,0.5]];portConstraint=eastwest;top=0;left=0;right=0;bottom=0;" vertex="1" parent="WRHxQeInZ_svKYXOi5BU-48">
          <mxGeometry y="210" width="200" height="30" as="geometry" />
        </mxCell>
        <mxCell id="WRHxQeInZ_svKYXOi5BU-65" value="" style="shape=partialRectangle;connectable=0;fillColor=none;top=0;left=0;bottom=0;right=0;editable=1;overflow=hidden;" vertex="1" parent="WRHxQeInZ_svKYXOi5BU-64">
          <mxGeometry width="30" height="30" as="geometry">
            <mxRectangle width="30" height="30" as="alternateBounds" />
          </mxGeometry>
        </mxCell>
        <mxCell id="WRHxQeInZ_svKYXOi5BU-66" value="status" style="shape=partialRectangle;connectable=0;fillColor=none;top=0;left=0;bottom=0;right=0;align=left;spacingLeft=6;overflow=hidden;" vertex="1" parent="WRHxQeInZ_svKYXOi5BU-64">
          <mxGeometry x="30" width="170" height="30" as="geometry">
            <mxRectangle width="170" height="30" as="alternateBounds" />
          </mxGeometry>
        </mxCell>
        <mxCell id="WRHxQeInZ_svKYXOi5BU-67" value="" style="shape=tableRow;horizontal=0;startSize=0;swimlaneHead=0;swimlaneBody=0;fillColor=none;collapsible=0;dropTarget=0;points=[[0,0.5],[1,0.5]];portConstraint=eastwest;top=0;left=0;right=0;bottom=0;" vertex="1" parent="WRHxQeInZ_svKYXOi5BU-48">
          <mxGeometry y="240" width="200" height="30" as="geometry" />
        </mxCell>
        <mxCell id="WRHxQeInZ_svKYXOi5BU-68" value="" style="shape=partialRectangle;connectable=0;fillColor=none;top=0;left=0;bottom=0;right=0;editable=1;overflow=hidden;" vertex="1" parent="WRHxQeInZ_svKYXOi5BU-67">
          <mxGeometry width="30" height="30" as="geometry">
            <mxRectangle width="30" height="30" as="alternateBounds" />
          </mxGeometry>
        </mxCell>
        <mxCell id="WRHxQeInZ_svKYXOi5BU-69" value="createdAt " style="shape=partialRectangle;connectable=0;fillColor=none;top=0;left=0;bottom=0;right=0;align=left;spacingLeft=6;overflow=hidden;verticalAlign=middle;horizontal=1;labelBackgroundColor=none;labelBorderColor=none;" vertex="1" parent="WRHxQeInZ_svKYXOi5BU-67">
          <mxGeometry x="30" width="170" height="30" as="geometry">
            <mxRectangle width="170" height="30" as="alternateBounds" />
          </mxGeometry>
        </mxCell>
        <mxCell id="WRHxQeInZ_svKYXOi5BU-70" value="" style="shape=tableRow;horizontal=0;startSize=0;swimlaneHead=0;swimlaneBody=0;fillColor=none;collapsible=0;dropTarget=0;points=[[0,0.5],[1,0.5]];portConstraint=eastwest;top=0;left=0;right=0;bottom=0;" vertex="1" parent="WRHxQeInZ_svKYXOi5BU-48">
          <mxGeometry y="270" width="200" height="30" as="geometry" />
        </mxCell>
        <mxCell id="WRHxQeInZ_svKYXOi5BU-71" value="" style="shape=partialRectangle;connectable=0;fillColor=none;top=0;left=0;bottom=0;right=0;editable=1;overflow=hidden;" vertex="1" parent="WRHxQeInZ_svKYXOi5BU-70">
          <mxGeometry width="30" height="30" as="geometry">
            <mxRectangle width="30" height="30" as="alternateBounds" />
          </mxGeometry>
        </mxCell>
        <mxCell id="WRHxQeInZ_svKYXOi5BU-72" value="updatedAt" style="shape=partialRectangle;connectable=0;fillColor=none;top=0;left=0;bottom=0;right=0;align=left;spacingLeft=6;overflow=hidden;" vertex="1" parent="WRHxQeInZ_svKYXOi5BU-70">
          <mxGeometry x="30" width="170" height="30" as="geometry">
            <mxRectangle width="170" height="30" as="alternateBounds" />
          </mxGeometry>
        </mxCell>
        <mxCell id="WRHxQeInZ_svKYXOi5BU-80" value="Date" style="text;html=1;align=right;verticalAlign=middle;whiteSpace=wrap;rounded=0;spacingRight=7;fontColor=#808080;" vertex="1" parent="WRHxQeInZ_svKYXOi5BU-82">
          <mxGeometry x="33.333333333333336" y="240" width="166.66666666666669" height="30" as="geometry" />
        </mxCell>
        <mxCell id="WRHxQeInZ_svKYXOi5BU-75" value="String" style="text;html=1;align=right;verticalAlign=middle;whiteSpace=wrap;rounded=0;spacingRight=7;fontColor=#808080;" vertex="1" parent="WRHxQeInZ_svKYXOi5BU-82">
          <mxGeometry x="33.333333333333336" y="90" width="166.66666666666669" height="30" as="geometry" />
        </mxCell>
        <mxCell id="WRHxQeInZ_svKYXOi5BU-76" value="String" style="text;html=1;align=right;verticalAlign=middle;whiteSpace=wrap;rounded=0;spacingRight=7;fontColor=#808080;" vertex="1" parent="WRHxQeInZ_svKYXOi5BU-82">
          <mxGeometry x="33.333333333333336" y="120" width="166.66666666666669" height="30" as="geometry" />
        </mxCell>
        <mxCell id="WRHxQeInZ_svKYXOi5BU-77" value="String" style="text;html=1;align=right;verticalAlign=middle;whiteSpace=wrap;rounded=0;spacingRight=7;fontColor=#808080;" vertex="1" parent="WRHxQeInZ_svKYXOi5BU-82">
          <mxGeometry x="33.333333333333336" y="150" width="166.66666666666669" height="30" as="geometry" />
        </mxCell>
        <mxCell id="WRHxQeInZ_svKYXOi5BU-78" value="String" style="text;html=1;align=right;verticalAlign=middle;whiteSpace=wrap;rounded=0;spacingRight=7;fontColor=#808080;" vertex="1" parent="WRHxQeInZ_svKYXOi5BU-82">
          <mxGeometry x="33.333333333333336" y="180" width="166.66666666666669" height="30" as="geometry" />
        </mxCell>
        <mxCell id="WRHxQeInZ_svKYXOi5BU-74" value="ObjectId" style="text;html=1;align=right;verticalAlign=middle;whiteSpace=wrap;rounded=0;spacingRight=7;fontColor=#808080;" vertex="1" parent="WRHxQeInZ_svKYXOi5BU-82">
          <mxGeometry x="33.333333333333336" y="60" width="166.66666666666669" height="30" as="geometry" />
        </mxCell>
        <mxCell id="WRHxQeInZ_svKYXOi5BU-88" value="String" style="text;html=1;align=right;verticalAlign=middle;whiteSpace=wrap;rounded=0;spacingRight=7;fontColor=#808080;" vertex="1" parent="WRHxQeInZ_svKYXOi5BU-82">
          <mxGeometry x="33.333333333333336" y="210" width="166.66666666666669" height="30" as="geometry" />
        </mxCell>
        <mxCell id="WRHxQeInZ_svKYXOi5BU-73" value="ObjectId" style="text;html=1;align=right;verticalAlign=middle;whiteSpace=wrap;rounded=0;spacingRight=7;fontColor=#808080;" vertex="1" parent="WRHxQeInZ_svKYXOi5BU-82">
          <mxGeometry x="33.33333333333337" y="30" width="166.66666666666669" height="30" as="geometry" />
        </mxCell>
        <mxCell id="WRHxQeInZ_svKYXOi5BU-79" value="&lt;font color=&quot;#808080&quot;&gt;Date&lt;/font&gt;" style="text;html=1;align=right;verticalAlign=middle;whiteSpace=wrap;rounded=0;spacingRight=7;" vertex="1" parent="WRHxQeInZ_svKYXOi5BU-90">
          <mxGeometry x="33.333333333333336" y="270" width="166.66666666666669" height="30" as="geometry" />
        </mxCell>
        <mxCell id="WRHxQeInZ_svKYXOi5BU-91" value="" style="group" vertex="1" connectable="0" parent="1">
          <mxGeometry x="160" y="430" width="200.00000000000003" height="270" as="geometry" />
        </mxCell>
        <mxCell id="WRHxQeInZ_svKYXOi5BU-92" value="Tokens" style="shape=table;startSize=30;container=1;collapsible=1;childLayout=tableLayout;fixedRows=1;rowLines=0;fontStyle=1;align=center;resizeLast=1;html=1;strokeWidth=2;strokeColor=#009900;" vertex="1" parent="WRHxQeInZ_svKYXOi5BU-91">
          <mxGeometry width="200" height="180" as="geometry" />
        </mxCell>
        <mxCell id="WRHxQeInZ_svKYXOi5BU-93" value="" style="shape=tableRow;horizontal=0;startSize=0;swimlaneHead=0;swimlaneBody=0;fillColor=none;collapsible=0;dropTarget=0;points=[[0,0.5],[1,0.5]];portConstraint=eastwest;top=0;left=0;right=0;bottom=1;strokeWidth=2;strokeColor=#009900;" vertex="1" parent="WRHxQeInZ_svKYXOi5BU-92">
          <mxGeometry y="30" width="200" height="30" as="geometry" />
        </mxCell>
        <mxCell id="WRHxQeInZ_svKYXOi5BU-94" value="PK" style="shape=partialRectangle;connectable=0;fillColor=none;top=0;left=0;bottom=0;right=0;fontStyle=1;overflow=hidden;whiteSpace=wrap;html=1;" vertex="1" parent="WRHxQeInZ_svKYXOi5BU-93">
          <mxGeometry width="30" height="30" as="geometry">
            <mxRectangle width="30" height="30" as="alternateBounds" />
          </mxGeometry>
        </mxCell>
        <mxCell id="WRHxQeInZ_svKYXOi5BU-95" value="_id" style="shape=partialRectangle;connectable=0;fillColor=none;top=0;left=0;bottom=0;right=0;align=left;spacingLeft=6;fontStyle=5;overflow=hidden;whiteSpace=wrap;html=1;" vertex="1" parent="WRHxQeInZ_svKYXOi5BU-93">
          <mxGeometry x="30" width="170" height="30" as="geometry">
            <mxRectangle width="170" height="30" as="alternateBounds" />
          </mxGeometry>
        </mxCell>
        <mxCell id="WRHxQeInZ_svKYXOi5BU-96" value="" style="shape=tableRow;horizontal=0;startSize=0;swimlaneHead=0;swimlaneBody=0;fillColor=none;collapsible=0;dropTarget=0;points=[[0,0.5],[1,0.5]];portConstraint=eastwest;top=0;left=0;right=0;bottom=0;" vertex="1" parent="WRHxQeInZ_svKYXOi5BU-92">
          <mxGeometry y="60" width="200" height="30" as="geometry" />
        </mxCell>
        <mxCell id="WRHxQeInZ_svKYXOi5BU-97" value="" style="shape=partialRectangle;connectable=0;fillColor=none;top=0;left=0;bottom=0;right=0;editable=1;overflow=hidden;whiteSpace=wrap;html=1;" vertex="1" parent="WRHxQeInZ_svKYXOi5BU-96">
          <mxGeometry width="30" height="30" as="geometry">
            <mxRectangle width="30" height="30" as="alternateBounds" />
          </mxGeometry>
        </mxCell>
        <mxCell id="WRHxQeInZ_svKYXOi5BU-98" value="token" style="shape=partialRectangle;connectable=0;fillColor=none;top=0;left=0;bottom=0;right=0;align=left;spacingLeft=6;overflow=hidden;whiteSpace=wrap;html=1;" vertex="1" parent="WRHxQeInZ_svKYXOi5BU-96">
          <mxGeometry x="30" width="170" height="30" as="geometry">
            <mxRectangle width="170" height="30" as="alternateBounds" />
          </mxGeometry>
        </mxCell>
        <mxCell id="WRHxQeInZ_svKYXOi5BU-99" value="" style="shape=tableRow;horizontal=0;startSize=0;swimlaneHead=0;swimlaneBody=0;fillColor=none;collapsible=0;dropTarget=0;points=[[0,0.5],[1,0.5]];portConstraint=eastwest;top=0;left=0;right=0;bottom=0;" vertex="1" parent="WRHxQeInZ_svKYXOi5BU-92">
          <mxGeometry y="90" width="200" height="30" as="geometry" />
        </mxCell>
        <mxCell id="WRHxQeInZ_svKYXOi5BU-100" value="" style="shape=partialRectangle;connectable=0;fillColor=none;top=0;left=0;bottom=0;right=0;editable=1;overflow=hidden;whiteSpace=wrap;html=1;" vertex="1" parent="WRHxQeInZ_svKYXOi5BU-99">
          <mxGeometry width="30" height="30" as="geometry">
            <mxRectangle width="30" height="30" as="alternateBounds" />
          </mxGeometry>
        </mxCell>
        <mxCell id="WRHxQeInZ_svKYXOi5BU-101" value="expiresIn" style="shape=partialRectangle;connectable=0;fillColor=none;top=0;left=0;bottom=0;right=0;align=left;spacingLeft=6;overflow=hidden;whiteSpace=wrap;html=1;" vertex="1" parent="WRHxQeInZ_svKYXOi5BU-99">
          <mxGeometry x="30" width="170" height="30" as="geometry">
            <mxRectangle width="170" height="30" as="alternateBounds" />
          </mxGeometry>
        </mxCell>
        <mxCell id="WRHxQeInZ_svKYXOi5BU-111" value="" style="shape=tableRow;horizontal=0;startSize=0;swimlaneHead=0;swimlaneBody=0;fillColor=none;collapsible=0;dropTarget=0;points=[[0,0.5],[1,0.5]];portConstraint=eastwest;top=0;left=0;right=0;bottom=0;" vertex="1" parent="WRHxQeInZ_svKYXOi5BU-92">
          <mxGeometry y="120" width="200" height="30" as="geometry" />
        </mxCell>
        <mxCell id="WRHxQeInZ_svKYXOi5BU-112" value="" style="shape=partialRectangle;connectable=0;fillColor=none;top=0;left=0;bottom=0;right=0;editable=1;overflow=hidden;" vertex="1" parent="WRHxQeInZ_svKYXOi5BU-111">
          <mxGeometry width="30" height="30" as="geometry">
            <mxRectangle width="30" height="30" as="alternateBounds" />
          </mxGeometry>
        </mxCell>
        <mxCell id="WRHxQeInZ_svKYXOi5BU-113" value="createdAt " style="shape=partialRectangle;connectable=0;fillColor=none;top=0;left=0;bottom=0;right=0;align=left;spacingLeft=6;overflow=hidden;verticalAlign=middle;horizontal=1;labelBackgroundColor=none;labelBorderColor=none;" vertex="1" parent="WRHxQeInZ_svKYXOi5BU-111">
          <mxGeometry x="30" width="170" height="30" as="geometry">
            <mxRectangle width="170" height="30" as="alternateBounds" />
          </mxGeometry>
        </mxCell>
        <mxCell id="WRHxQeInZ_svKYXOi5BU-114" value="" style="shape=tableRow;horizontal=0;startSize=0;swimlaneHead=0;swimlaneBody=0;fillColor=none;collapsible=0;dropTarget=0;points=[[0,0.5],[1,0.5]];portConstraint=eastwest;top=0;left=0;right=0;bottom=0;" vertex="1" parent="WRHxQeInZ_svKYXOi5BU-92">
          <mxGeometry y="150" width="200" height="30" as="geometry" />
        </mxCell>
        <mxCell id="WRHxQeInZ_svKYXOi5BU-115" value="" style="shape=partialRectangle;connectable=0;fillColor=none;top=0;left=0;bottom=0;right=0;editable=1;overflow=hidden;" vertex="1" parent="WRHxQeInZ_svKYXOi5BU-114">
          <mxGeometry width="30" height="30" as="geometry">
            <mxRectangle width="30" height="30" as="alternateBounds" />
          </mxGeometry>
        </mxCell>
        <mxCell id="WRHxQeInZ_svKYXOi5BU-116" value="updatedAt" style="shape=partialRectangle;connectable=0;fillColor=none;top=0;left=0;bottom=0;right=0;align=left;spacingLeft=6;overflow=hidden;" vertex="1" parent="WRHxQeInZ_svKYXOi5BU-114">
          <mxGeometry x="30" width="170" height="30" as="geometry">
            <mxRectangle width="170" height="30" as="alternateBounds" />
          </mxGeometry>
        </mxCell>
        <mxCell id="WRHxQeInZ_svKYXOi5BU-123" value="Date" style="text;html=1;align=right;verticalAlign=middle;whiteSpace=wrap;rounded=0;spacingRight=7;fontColor=#808080;" vertex="1" parent="WRHxQeInZ_svKYXOi5BU-91">
          <mxGeometry x="33.333333333333336" y="120" width="166.66666666666669" height="30" as="geometry" />
        </mxCell>
        <mxCell id="WRHxQeInZ_svKYXOi5BU-124" value="Date" style="text;html=1;align=right;verticalAlign=middle;whiteSpace=wrap;rounded=0;spacingRight=7;fontColor=#808080;" vertex="1" parent="WRHxQeInZ_svKYXOi5BU-91">
          <mxGeometry x="33.333333333333336" y="150" width="166.66666666666669" height="30" as="geometry" />
        </mxCell>
        <mxCell id="WRHxQeInZ_svKYXOi5BU-118" value="String" style="text;html=1;align=right;verticalAlign=middle;whiteSpace=wrap;rounded=0;spacingRight=7;fontColor=#808080;" vertex="1" parent="WRHxQeInZ_svKYXOi5BU-91">
          <mxGeometry x="33.333333333333336" y="60" width="166.66666666666669" height="30" as="geometry" />
        </mxCell>
        <mxCell id="WRHxQeInZ_svKYXOi5BU-119" value="String" style="text;html=1;align=right;verticalAlign=middle;whiteSpace=wrap;rounded=0;spacingRight=7;fontColor=#808080;" vertex="1" parent="WRHxQeInZ_svKYXOi5BU-91">
          <mxGeometry x="33.333333333333336" y="90" width="166.66666666666669" height="30" as="geometry" />
        </mxCell>
        <mxCell id="WRHxQeInZ_svKYXOi5BU-117" value="ObjectId" style="text;html=1;align=right;verticalAlign=middle;whiteSpace=wrap;rounded=0;spacingRight=7;fontColor=#808080;" vertex="1" parent="WRHxQeInZ_svKYXOi5BU-91">
          <mxGeometry x="33.329999999999984" y="30" width="166.67" height="30" as="geometry" />
        </mxCell>
        <mxCell id="WRHxQeInZ_svKYXOi5BU-165" value="" style="group;strokeWidth=1;" vertex="1" connectable="0" parent="1">
          <mxGeometry x="520" y="800" width="200.00000000000006" height="300" as="geometry" />
        </mxCell>
        <mxCell id="WRHxQeInZ_svKYXOi5BU-166" value="" style="group;strokeWidth=2;" vertex="1" connectable="0" parent="WRHxQeInZ_svKYXOi5BU-165">
          <mxGeometry width="200.00000000000006" height="270" as="geometry" />
        </mxCell>
        <mxCell id="WRHxQeInZ_svKYXOi5BU-167" value="Verifications" style="shape=table;startSize=30;container=1;collapsible=1;childLayout=tableLayout;fixedRows=1;rowLines=0;fontStyle=1;align=center;resizeLast=1;html=1;strokeWidth=2;strokeColor=#999900;" vertex="1" parent="WRHxQeInZ_svKYXOi5BU-166">
          <mxGeometry width="200" height="240" as="geometry">
            <mxRectangle width="110" height="30" as="alternateBounds" />
          </mxGeometry>
        </mxCell>
        <mxCell id="WRHxQeInZ_svKYXOi5BU-168" value="" style="shape=tableRow;horizontal=0;startSize=0;swimlaneHead=0;swimlaneBody=0;fillColor=none;collapsible=0;dropTarget=0;points=[[0,0.5],[1,0.5]];portConstraint=eastwest;top=0;left=0;right=0;bottom=1;strokeWidth=2;strokeColor=#999900;" vertex="1" parent="WRHxQeInZ_svKYXOi5BU-167">
          <mxGeometry y="30" width="200" height="30" as="geometry" />
        </mxCell>
        <mxCell id="WRHxQeInZ_svKYXOi5BU-169" value="PK" style="shape=partialRectangle;connectable=0;fillColor=none;top=0;left=0;bottom=0;right=0;fontStyle=1;overflow=hidden;whiteSpace=wrap;html=1;" vertex="1" parent="WRHxQeInZ_svKYXOi5BU-168">
          <mxGeometry width="30" height="30" as="geometry">
            <mxRectangle width="30" height="30" as="alternateBounds" />
          </mxGeometry>
        </mxCell>
        <mxCell id="WRHxQeInZ_svKYXOi5BU-170" value="_id" style="shape=partialRectangle;connectable=0;fillColor=none;top=0;left=0;bottom=0;right=0;align=left;spacingLeft=6;fontStyle=5;overflow=hidden;whiteSpace=wrap;html=1;" vertex="1" parent="WRHxQeInZ_svKYXOi5BU-168">
          <mxGeometry x="30" width="170" height="30" as="geometry">
            <mxRectangle width="170" height="30" as="alternateBounds" />
          </mxGeometry>
        </mxCell>
        <mxCell id="WRHxQeInZ_svKYXOi5BU-171" value="" style="shape=tableRow;horizontal=0;startSize=0;swimlaneHead=0;swimlaneBody=0;fillColor=none;collapsible=0;dropTarget=0;points=[[0,0.5],[1,0.5]];portConstraint=eastwest;top=0;left=0;right=0;bottom=0;" vertex="1" parent="WRHxQeInZ_svKYXOi5BU-167">
          <mxGeometry y="60" width="200" height="30" as="geometry" />
        </mxCell>
        <mxCell id="WRHxQeInZ_svKYXOi5BU-172" value="FK" style="shape=partialRectangle;connectable=0;fillColor=none;top=0;left=0;bottom=0;right=0;fontStyle=0;overflow=hidden;whiteSpace=wrap;html=1;" vertex="1" parent="WRHxQeInZ_svKYXOi5BU-171">
          <mxGeometry width="30" height="30" as="geometry">
            <mxRectangle width="30" height="30" as="alternateBounds" />
          </mxGeometry>
        </mxCell>
        <mxCell id="WRHxQeInZ_svKYXOi5BU-173" value="userId" style="shape=partialRectangle;connectable=0;fillColor=none;top=0;left=0;bottom=0;right=0;align=left;spacingLeft=6;fontStyle=0;overflow=hidden;whiteSpace=wrap;html=1;" vertex="1" parent="WRHxQeInZ_svKYXOi5BU-171">
          <mxGeometry x="30" width="170" height="30" as="geometry">
            <mxRectangle width="170" height="30" as="alternateBounds" />
          </mxGeometry>
        </mxCell>
        <mxCell id="WRHxQeInZ_svKYXOi5BU-174" value="" style="shape=tableRow;horizontal=0;startSize=0;swimlaneHead=0;swimlaneBody=0;fillColor=none;collapsible=0;dropTarget=0;points=[[0,0.5],[1,0.5]];portConstraint=eastwest;top=0;left=0;right=0;bottom=0;" vertex="1" parent="WRHxQeInZ_svKYXOi5BU-167">
          <mxGeometry y="90" width="200" height="30" as="geometry" />
        </mxCell>
        <mxCell id="WRHxQeInZ_svKYXOi5BU-175" value="" style="shape=partialRectangle;connectable=0;fillColor=none;top=0;left=0;bottom=0;right=0;editable=1;overflow=hidden;whiteSpace=wrap;html=1;" vertex="1" parent="WRHxQeInZ_svKYXOi5BU-174">
          <mxGeometry width="30" height="30" as="geometry">
            <mxRectangle width="30" height="30" as="alternateBounds" />
          </mxGeometry>
        </mxCell>
        <mxCell id="WRHxQeInZ_svKYXOi5BU-176" value="token" style="shape=partialRectangle;connectable=0;fillColor=none;top=0;left=0;bottom=0;right=0;align=left;spacingLeft=6;overflow=hidden;whiteSpace=wrap;html=1;" vertex="1" parent="WRHxQeInZ_svKYXOi5BU-174">
          <mxGeometry x="30" width="170" height="30" as="geometry">
            <mxRectangle width="170" height="30" as="alternateBounds" />
          </mxGeometry>
        </mxCell>
        <mxCell id="WRHxQeInZ_svKYXOi5BU-177" value="" style="shape=tableRow;horizontal=0;startSize=0;swimlaneHead=0;swimlaneBody=0;fillColor=none;collapsible=0;dropTarget=0;points=[[0,0.5],[1,0.5]];portConstraint=eastwest;top=0;left=0;right=0;bottom=0;" vertex="1" parent="WRHxQeInZ_svKYXOi5BU-167">
          <mxGeometry y="120" width="200" height="30" as="geometry" />
        </mxCell>
        <mxCell id="WRHxQeInZ_svKYXOi5BU-178" value="" style="shape=partialRectangle;connectable=0;fillColor=none;top=0;left=0;bottom=0;right=0;editable=1;overflow=hidden;whiteSpace=wrap;html=1;" vertex="1" parent="WRHxQeInZ_svKYXOi5BU-177">
          <mxGeometry width="30" height="30" as="geometry">
            <mxRectangle width="30" height="30" as="alternateBounds" />
          </mxGeometry>
        </mxCell>
        <mxCell id="WRHxQeInZ_svKYXOi5BU-179" value="type" style="shape=partialRectangle;connectable=0;fillColor=none;top=0;left=0;bottom=0;right=0;align=left;spacingLeft=6;overflow=hidden;whiteSpace=wrap;html=1;" vertex="1" parent="WRHxQeInZ_svKYXOi5BU-177">
          <mxGeometry x="30" width="170" height="30" as="geometry">
            <mxRectangle width="170" height="30" as="alternateBounds" />
          </mxGeometry>
        </mxCell>
        <mxCell id="WRHxQeInZ_svKYXOi5BU-180" value="" style="shape=tableRow;horizontal=0;startSize=0;swimlaneHead=0;swimlaneBody=0;fillColor=none;collapsible=0;dropTarget=0;points=[[0,0.5],[1,0.5]];portConstraint=eastwest;top=0;left=0;right=0;bottom=0;" vertex="1" parent="WRHxQeInZ_svKYXOi5BU-167">
          <mxGeometry y="150" width="200" height="30" as="geometry" />
        </mxCell>
        <mxCell id="WRHxQeInZ_svKYXOi5BU-181" value="" style="shape=partialRectangle;connectable=0;fillColor=none;top=0;left=0;bottom=0;right=0;editable=1;overflow=hidden;whiteSpace=wrap;html=1;" vertex="1" parent="WRHxQeInZ_svKYXOi5BU-180">
          <mxGeometry width="30" height="30" as="geometry">
            <mxRectangle width="30" height="30" as="alternateBounds" />
          </mxGeometry>
        </mxCell>
        <mxCell id="WRHxQeInZ_svKYXOi5BU-182" value="expiresIn" style="shape=partialRectangle;connectable=0;fillColor=none;top=0;left=0;bottom=0;right=0;align=left;spacingLeft=6;overflow=hidden;whiteSpace=wrap;html=1;" vertex="1" parent="WRHxQeInZ_svKYXOi5BU-180">
          <mxGeometry x="30" width="170" height="30" as="geometry">
            <mxRectangle width="170" height="30" as="alternateBounds" />
          </mxGeometry>
        </mxCell>
        <mxCell id="WRHxQeInZ_svKYXOi5BU-189" value="" style="shape=tableRow;horizontal=0;startSize=0;swimlaneHead=0;swimlaneBody=0;fillColor=none;collapsible=0;dropTarget=0;points=[[0,0.5],[1,0.5]];portConstraint=eastwest;top=0;left=0;right=0;bottom=0;" vertex="1" parent="WRHxQeInZ_svKYXOi5BU-167">
          <mxGeometry y="180" width="200" height="30" as="geometry" />
        </mxCell>
        <mxCell id="WRHxQeInZ_svKYXOi5BU-190" value="" style="shape=partialRectangle;connectable=0;fillColor=none;top=0;left=0;bottom=0;right=0;editable=1;overflow=hidden;" vertex="1" parent="WRHxQeInZ_svKYXOi5BU-189">
          <mxGeometry width="30" height="30" as="geometry">
            <mxRectangle width="30" height="30" as="alternateBounds" />
          </mxGeometry>
        </mxCell>
        <mxCell id="WRHxQeInZ_svKYXOi5BU-191" value="createdAt " style="shape=partialRectangle;connectable=0;fillColor=none;top=0;left=0;bottom=0;right=0;align=left;spacingLeft=6;overflow=hidden;verticalAlign=middle;horizontal=1;labelBackgroundColor=none;labelBorderColor=none;" vertex="1" parent="WRHxQeInZ_svKYXOi5BU-189">
          <mxGeometry x="30" width="170" height="30" as="geometry">
            <mxRectangle width="170" height="30" as="alternateBounds" />
          </mxGeometry>
        </mxCell>
        <mxCell id="WRHxQeInZ_svKYXOi5BU-192" value="" style="shape=tableRow;horizontal=0;startSize=0;swimlaneHead=0;swimlaneBody=0;fillColor=none;collapsible=0;dropTarget=0;points=[[0,0.5],[1,0.5]];portConstraint=eastwest;top=0;left=0;right=0;bottom=0;" vertex="1" parent="WRHxQeInZ_svKYXOi5BU-167">
          <mxGeometry y="210" width="200" height="30" as="geometry" />
        </mxCell>
        <mxCell id="WRHxQeInZ_svKYXOi5BU-193" value="" style="shape=partialRectangle;connectable=0;fillColor=none;top=0;left=0;bottom=0;right=0;editable=1;overflow=hidden;" vertex="1" parent="WRHxQeInZ_svKYXOi5BU-192">
          <mxGeometry width="30" height="30" as="geometry">
            <mxRectangle width="30" height="30" as="alternateBounds" />
          </mxGeometry>
        </mxCell>
        <mxCell id="WRHxQeInZ_svKYXOi5BU-194" value="updatedAt" style="shape=partialRectangle;connectable=0;fillColor=none;top=0;left=0;bottom=0;right=0;align=left;spacingLeft=6;overflow=hidden;" vertex="1" parent="WRHxQeInZ_svKYXOi5BU-192">
          <mxGeometry x="30" width="170" height="30" as="geometry">
            <mxRectangle width="170" height="30" as="alternateBounds" />
          </mxGeometry>
        </mxCell>
        <mxCell id="WRHxQeInZ_svKYXOi5BU-196" value="Date" style="text;html=1;align=right;verticalAlign=middle;whiteSpace=wrap;rounded=0;spacingRight=7;fontColor=#808080;" vertex="1" parent="WRHxQeInZ_svKYXOi5BU-166">
          <mxGeometry x="33.333333333333336" y="180" width="166.66666666666669" height="30" as="geometry" />
        </mxCell>
        <mxCell id="WRHxQeInZ_svKYXOi5BU-201" value="&lt;font color=&quot;#808080&quot;&gt;ObjectId&lt;/font&gt;" style="text;html=1;align=right;verticalAlign=middle;whiteSpace=wrap;rounded=0;spacingRight=7;" vertex="1" parent="WRHxQeInZ_svKYXOi5BU-166">
          <mxGeometry x="33.333333333333336" y="60" width="166.66666666666669" height="30" as="geometry" />
        </mxCell>
        <mxCell id="WRHxQeInZ_svKYXOi5BU-197" value="String" style="text;html=1;align=right;verticalAlign=middle;whiteSpace=wrap;rounded=0;spacingRight=7;fontColor=#808080;" vertex="1" parent="WRHxQeInZ_svKYXOi5BU-166">
          <mxGeometry x="33.33333333333337" y="90" width="166.66666666666669" height="30" as="geometry" />
        </mxCell>
        <mxCell id="WRHxQeInZ_svKYXOi5BU-198" value="String" style="text;html=1;align=right;verticalAlign=middle;whiteSpace=wrap;rounded=0;spacingRight=7;fontColor=#808080;" vertex="1" parent="WRHxQeInZ_svKYXOi5BU-166">
          <mxGeometry x="33.33333333333326" y="120" width="166.66666666666669" height="30" as="geometry" />
        </mxCell>
        <mxCell id="WRHxQeInZ_svKYXOi5BU-199" value="String" style="text;html=1;align=right;verticalAlign=middle;whiteSpace=wrap;rounded=0;spacingRight=7;fontColor=#808080;" vertex="1" parent="WRHxQeInZ_svKYXOi5BU-166">
          <mxGeometry x="33.33333333333337" y="150" width="166.66666666666669" height="30" as="geometry" />
        </mxCell>
        <mxCell id="WRHxQeInZ_svKYXOi5BU-203" value="Date" style="text;html=1;align=right;verticalAlign=middle;whiteSpace=wrap;rounded=0;spacingRight=7;fontColor=#808080;" vertex="1" parent="WRHxQeInZ_svKYXOi5BU-166">
          <mxGeometry x="33.333333333333336" y="210" width="166.66666666666669" height="30" as="geometry" />
        </mxCell>
        <mxCell id="WRHxQeInZ_svKYXOi5BU-195" value="&lt;font color=&quot;#808080&quot;&gt;ObjectId&lt;/font&gt;" style="text;html=1;align=right;verticalAlign=middle;whiteSpace=wrap;rounded=0;spacingRight=7;" vertex="1" parent="WRHxQeInZ_svKYXOi5BU-166">
          <mxGeometry x="33.33333333333337" y="30" width="166.66666666666669" height="30" as="geometry" />
        </mxCell>
        <mxCell id="WRHxQeInZ_svKYXOi5BU-205" style="edgeStyle=orthogonalEdgeStyle;rounded=0;orthogonalLoop=1;jettySize=auto;html=1;exitX=0;exitY=0.5;exitDx=0;exitDy=0;entryX=1;entryY=0.5;entryDx=0;entryDy=0;strokeWidth=2;strokeColor=#990000;" edge="1" parent="1" source="WRHxQeInZ_svKYXOi5BU-84" target="WRHxQeInZ_svKYXOi5BU-40">
          <mxGeometry relative="1" as="geometry" />
        </mxCell>
        <mxCell id="WRHxQeInZ_svKYXOi5BU-206" style="edgeStyle=orthogonalEdgeStyle;rounded=0;orthogonalLoop=1;jettySize=auto;html=1;exitX=0;exitY=0.5;exitDx=0;exitDy=0;entryX=1;entryY=0.5;entryDx=0;entryDy=0;strokeWidth=2;strokeColor=#999900;" edge="1" parent="1" source="WRHxQeInZ_svKYXOi5BU-171" target="WRHxQeInZ_svKYXOi5BU-40">
          <mxGeometry relative="1" as="geometry">
            <Array as="points">
              <mxPoint x="400" y="875" />
              <mxPoint x="400" y="815" />
            </Array>
          </mxGeometry>
        </mxCell>
      </root>
    </mxGraphModel>
  </diagram>
</mxfile>
